<?xml version="1.0" encoding="utf-8"?>
<!-- Generator: Adobe Illustrator 19.2.1, SVG Export Plug-In . SVG Version: 6.00 Build 0)  -->
<svg version="1.1" id="layer" xmlns="http://www.w3.org/2000/svg" xmlns:xlink="http://www.w3.org/1999/xlink" x="0px" y="0px"
	 viewBox="0 0 652 652" style="enable-background:new 0 0 652 652;" xml:space="preserve">
<style type="text/css">
	.st0{fill:#006AA9;}
</style>
<rect x="21.9" y="271.5" class="st0" width="27.2" height="27.2"/>
<rect x="57" y="271.5" class="st0" width="27.2" height="27.2"/>
<rect x="92.1" y="271.5" class="st0" width="27.2" height="27.2"/>
<rect x="21.9" y="306.6" class="st0" width="27.2" height="27.2"/>
<rect x="57" y="306.6" class="st0" width="27.2" height="27.2"/>
<rect x="92.1" y="306.6" class="st0" width="27.2" height="27.2"/>
<rect x="21.9" y="341.8" class="st0" width="27.2" height="27.2"/>
<rect x="57" y="341.8" class="st0" width="27.2" height="27.2"/>
<rect x="92.1" y="341.8" class="st0" width="27.2" height="27.2"/>
<path class="st0" d="M175,313.6c5.2-4.6,12.5-7.9,20.7-7.9c13.9,0,27.4,9.5,27.4,32.3c0,23.6-15.1,32.5-31.3,32.5
	c-9.1,0-17.5-2.9-23.8-6.5v-92.4h7 M175,360.1c5.8,2.9,11.4,4.1,16.4,4.1c12.8,0,24.7-7.5,24.7-26.2c-0.1-16.5-9.3-26-21-26
	c-8,0-15.2,4.4-20.1,9.8V360.1z"/>
<rect x="235.3" y="271.5" class="st0" width="6.7" height="97.9"/>
<path class="st0" d="M265.1,344.9c0,14.9,7.3,18.9,14.6,18.9c8.2,0,15.7-5.2,21.6-13.7v-43.4h7v62.6h-7v-12.1
	c-5.5,7.8-14.3,13.1-23.8,13.1c-9.9,0-19.4-5.6-19.4-24.7v-38.9h7"/>
<path class="st0" d="M374.8,365.1c-5.4,2.9-13.2,5.7-22.3,5.4c-21-0.7-31.8-17.2-31.1-34.8c0.8-19.7,15.4-30.4,31-29.9
	c16.8,0.4,28.3,13.9,26.1,33.7h-50.3c-0.1,11.6,8.1,24,24.6,24.6c7.3,0.3,14.1-1.9,19.6-4.8 M372,333.8c0.3-10.9-7.3-21.3-20.3-21.7
	c-12.5-0.4-22.4,8.9-23.2,21.7H372z"/>
<path class="st0" d="M401.1,318.9c5.1-7.8,13.4-13.2,23-13.2c12.5,0,19.9,9.5,19.9,23.5v40.2h-6.9v-38.7c0-13.6-7-18.4-14.5-18.4
	c-9.1-0.1-17.3,7-21.5,14.1v43h-7v-97.8h7"/>
<path class="st0" d="M515.6,337.9c0,20.7-14.1,32.4-30.1,32.4c-18,0-30.1-14.5-30.1-32.4c0-19,13.4-32.2,30.1-32.2
	C501.6,305.7,515.6,317.7,515.6,337.9 M462.4,337.9c0,13.8,8.1,25.9,23.1,25.9c14.5,0,23.2-12.1,23.2-25.9
	c0-13.9-8.6-25.8-23.2-25.8C470.5,312.2,462.4,324,462.4,337.9"/>
<path class="st0" d="M531.5,358.5c5.2,3.5,11.1,5.3,16.7,5.3c6.5,0,14.7-2.7,14.6-9.3c0-5.6-6-10-15.6-13.8
	c-10.7-4.2-20-8.1-20-18.2c0-10,9.4-16.7,21.7-16.7c6.5,0,12.4,1.9,17.4,4.5l-2.7,5.5c-4-2.1-8.9-3.7-14.5-3.7
	c-10.4,0-15,5.1-15,10.4c0,6.8,7.7,9.3,17.3,13.2c15.1,5.9,18.3,12.7,18.3,18.4c0,9.8-9.2,16-21.4,16c-6.9,0-13.6-2-19.9-5.7"/>
<path class="st0" d="M615.5,306.7v5.9h-20.7v34.2c0,10.1,4.3,16.6,13.4,17c3.9,0.2,8.1-0.8,11.8-2.4l2,6.1c-4.2,1.6-9,2.8-13.9,2.8
	c-11.3,0-20.3-6.9-20.3-23v-34.7h-11.2v-5.9h11.2v-21h7v21"/>
</svg>
