<?xml version="1.0" encoding="utf-8"?>
<!-- Generator: Adobe Illustrator 16.0.3, SVG Export Plug-In . SVG Version: 6.00 Build 0)  -->
<!DOCTYPE svg PUBLIC "-//W3C//DTD SVG 1.1//EN" "http://www.w3.org/Graphics/SVG/1.1/DTD/svg11.dtd">
<svg version="1.1" id="Izolovaný_režim" xmlns="http://www.w3.org/2000/svg" xmlns:xlink="http://www.w3.org/1999/xlink" x="0px"
	 y="0px" width="1000px" height="459px" viewBox="-96.5 0 1000 459" enable-background="new -96.5 0 1000 459" xml:space="preserve"
	>
<rect x="-96.5" y="0" fill="#FFFFFF" width="1000" height="459"/>
<g>
	<g>
		<path fill="#E1432C" d="M171.2,201.6c5,23.3-6.3,49.6-26.3,54c-20,4.4-41-14.9-46.2-38.2c-5-23.4,6.3-49.6,26.3-54
			C145.2,159,166.3,178.3,171.2,201.6z"/>
		<path opacity="0.5" fill="#FD5F69" enable-background="new    " d="M127.9,165.6c17.8-3.8,35.8,9.8,40.3,30.6
			c4.5,20.8-6.4,40.7-24.1,44.6c-17.8,3.8-35.8-9.8-40.3-30.6C99.3,189.4,110.2,169.5,127.9,165.6z"/>
		<path fill="#FD5F69" d="M131.9,167.1c15-3.3,30.1,8.2,33.9,25.7c3.7,17.5-5.3,34.3-20.3,37.5c-15,3.3-30.1-8.2-33.9-25.7
			C107.8,187.1,116.9,170.3,131.9,167.1z"/>
	</g>
	<g>
		<path fill="#302F33" d="M263.2,234.7l-16-25.2l-7.8,8.7v16.5H219v-69h20.5v26.6l23.1-26.6h23.6l-25,28.1l26.6,40.9H263.2
			L263.2,234.7z"/>
		<path fill="#302F33" d="M307.1,165.7l11.8,47.7l11.5-47.7h20l11.8,47.7l11.5-47.7h21l-22.6,69H351l-11-44l-11.2,44h-21.1l-22.4-69
			H307.1z"/>
		<path fill="#302F33" d="M451.1,165.7v15.7H418v13.8h30.7V211H418v23.7h-20.5v-69H451.1z"/>
		<path fill="#302F33" d="M476,181.2v53.5h-19.9v-53.5H476z M474.7,166.2c0,4.8-3.4,8.4-8.5,8.4c-5,0-8.5-3.5-8.5-8.4
			c0-5,3.4-8.6,8.5-8.6C471.2,157.7,474.7,161.2,474.7,166.2z"/>
		<path fill="#302F33" d="M541.8,200.8v34h-19.9v-28.3c0-5.3-3.1-8.7-7.7-8.7c-5.4,0.1-8.8,4.3-8.8,10.4v26.5h-19.9v-53.5h19.9v8.3
			c3.7-5.9,9.5-9.1,17-9.1C533.9,180.4,541.8,188.4,541.8,200.8z"/>
		<path fill="#302F33" d="M605.1,161.7v73h-19.9v-6.1c-3.5,4.3-8.6,6.8-14.7,6.8c-15,0-24.8-10.9-24.8-27.8
			c0-16.4,9.6-27.2,24.3-27.2c6.3,0,11.5,2.5,15.2,6.9v-25.7h19.9V161.7z M585.2,208.2c0-7.1-3.8-11.9-9.6-11.9
			c-5.9,0-9.7,4.8-9.7,11.9c0,7.2,3.8,12,9.7,12C581.4,220.2,585.2,215.4,585.2,208.2z"/>
		<path fill="#302F33" d="M667.1,212.8h-36c1.6,5.1,5.3,8,10.4,8c4.2,0,8.3-1.9,11.8-5.1l10.3,10.1c-5.6,6.2-13.7,9.6-23.8,9.6
			c-17.9,0-28.8-10.8-28.8-27.3c0-16.7,11.3-27.7,28.3-27.7C658,180.5,668.3,193.1,667.1,212.8z M639.4,194c-4.7,0-7.8,3.6-8.8,9.1
			h16.8C647.6,197.7,644.3,194,639.4,194z"/>
		<path fill="#302F33" d="M709.3,180.4v17.9c-10.2-1.3-16.8,3.1-16.8,10.8v25.6h-19.9v-53.5h19.9v8.5
			C696.2,183.8,702,180.4,709.3,180.4z"/>
	</g>
	<g>
		<path fill="#302F33" d="M247.4,279.1c0,7.9-4.6,13-11.7,13c-3,0-5.5-1.2-7.3-3.3v3h-9.5v-35h9.5V269c1.7-2.1,4.2-3.3,7-3.3
			C242.6,265.7,247.4,271,247.4,279.1z M237.7,278.8c0-3.4-1.8-5.7-4.7-5.7c-2.7,0-4.6,2.3-4.6,5.7s1.9,5.7,4.6,5.7
			C235.9,284.5,237.7,282.2,237.7,278.8z"/>
		<path fill="#302F33" d="M253.8,301.3c-3.2,0-5.7-0.9-8.3-2.8l4-6.4c1.2,1,2.2,1.5,3.4,1.5c1.3,0,2.2-0.5,2.8-1.7l0.5-0.9l-10.6-25
			h9.8l5.6,15.7l4.8-15.7h9.5l-10.8,27.8C262.5,299,259,301.3,253.8,301.3z"/>
		<path fill="#302F33" d="M300,258.7l8,18.3l8-18.3h10.5v33.1h-8.6v-19.6l-6.7,16.3h-6.4l-6.7-16.3v19.6h-8.6v-33.1H300z"/>
		<path fill="#302F33" d="M354.6,275.1v16.7h-9.3V289c-1.6,2.1-4.1,3.3-7.5,3.3c-5.5,0-8.7-3.3-8.7-8.1c0-5,3.4-7.7,9.9-7.8h6.3
			v-0.1c0-2.1-1.5-3.4-4.4-3.4c-2,0-4.9,0.6-7.7,1.8l-2.4-6.3c4.2-1.7,8.4-2.6,12.4-2.6C350.3,265.7,354.6,269.1,354.6,275.1z
			 M345.3,283.3V281H341c-1.9,0-2.9,0.8-2.9,2.4c0,1.6,1,2.5,2.9,2.5S344.6,284.9,345.3,283.3z"/>
		<path fill="#302F33" d="M385.5,275.5v16.3H376v-13.5c0-2.5-1.5-4.2-3.7-4.2c-2.6,0-4.2,2.1-4.2,5v12.7h-9.5v-25.7h9.5v4
			c1.8-2.8,4.6-4.3,8.2-4.3C381.7,265.7,385.5,269.5,385.5,275.5z"/>
		<path fill="#302F33" d="M414.5,266.1v23.5c0,7.2-5.7,11.8-14.1,11.8c-4.8,0-9.1-1.5-11.8-3.4l3.2-6.4c2.3,1.5,5.2,2.4,7.9,2.4
			c3.4,0,5.5-1.6,5.5-4.1v-2.6c-1.7,2-4,3.1-6.9,3.1c-6.2,0-10.8-4.9-10.8-12.4c0-7.3,4.4-12.1,10.6-12.1c3,0,5.4,1.1,7.1,3.1v-2.8
			h9.3V266.1z M405,278.2c0-3.3-1.7-5.4-4.4-5.4c-2.6,0-4.3,2.2-4.3,5.4c0,3.2,1.7,5.3,4.3,5.3C403.3,283.4,405,281.3,405,278.2z"/>
		<path fill="#302F33" d="M445.5,278.9c0,7.9-5.6,13.2-14.3,13.2s-14.3-5.2-14.3-13.2s5.7-13.2,14.3-13.2
			C439.8,265.7,445.5,270.9,445.5,278.9z M426.6,279c0,3.4,1.8,5.7,4.7,5.7c2.8,0,4.6-2.3,4.6-5.7c0-3.4-1.8-5.7-4.6-5.7
			C428.4,273.3,426.6,275.6,426.6,279z"/>
		<path fill="#302F33" d="M474.7,278.9c0,7.9-5.6,13.2-14.3,13.2c-8.7,0-14.3-5.2-14.3-13.2s5.7-13.2,14.3-13.2
			C469,265.7,474.7,270.9,474.7,278.9z M455.7,279c0,3.4,1.8,5.7,4.7,5.7c2.8,0,4.6-2.3,4.6-5.7c0-3.4-1.8-5.7-4.6-5.7
			C457.6,273.3,455.7,275.6,455.7,279z"/>
		<path fill="#302F33" d="M487,256.7v35h-9.5v-35H487z"/>
		<path fill="#302F33" d="M501.6,272.1c-1.2,0-1.9,0.4-1.9,1.2c0,2.9,13.4,1.6,13.4,10.4c0,5.3-4.6,8.5-11.3,8.5
			c-4.5,0-8.7-1.2-12.1-3.6l2.9-6c3.2,2.1,6.5,3.2,9.3,3.2c1.3,0,2.1-0.4,2.1-1.2c0-2.9-13.1-1.5-13.1-10.3c0-5.4,4.5-8.6,11-8.6
			c3.9,0,7.8,1.1,11.3,3.1l-3.2,6C506.5,273,503.6,272.1,501.6,272.1z"/>
	</g>
</g>
</svg>
